<svg version="1.1" id="Layer_1" xmlns="http://www.w3.org/2000/svg" xmlns:xlink="http://www.w3.org/1999/xlink" x="0px" y="0px"
	 width="100%" viewBox="0 0 527 404" enable-background="new 0 0 527 404" xml:space="preserve">
<path fill="#FFFFFF" opacity="1.000000" stroke="none" 
	d="
M380.000000,405.000000 
	C253.333328,405.000000 127.166664,405.000000 1.000000,405.000000 
	C1.000000,270.333344 1.000000,135.666672 1.000000,1.000000 
	C176.666672,1.000000 352.333344,1.000000 528.000000,1.000000 
	C528.000000,135.666672 528.000000,270.333344 528.000000,405.000000 
	C478.833344,405.000000 429.666656,405.000000 380.000000,405.000000 
M431.544647,205.330750 
	C433.573822,174.092316 427.875641,144.318771 413.861542,116.339188 
	C372.474701,33.709145 278.369781,-2.802189 191.973343,30.056610 
	C117.661072,58.319496 70.638039,137.293182 81.337837,216.123077 
	C87.078552,258.417358 105.192841,294.626434 136.851166,323.310455 
	C178.728851,361.253662 228.048447,375.841309 284.815308,367.697021 
	C287.748413,367.141754 290.712708,366.714905 293.610046,366.012207 
	C353.057770,351.594330 395.068390,316.356567 419.081757,260.098053 
	C426.408264,242.933487 431.000000,224.929489 431.544647,205.330750 
z"/>
<path fill="#3A3B3B" opacity="1.000000" stroke="none" 
	d="
M284.029877,367.623688 
	C228.048447,375.841309 178.728851,361.253662 136.851166,323.310455 
	C105.192841,294.626434 87.078552,258.417358 81.337837,216.123077 
	C70.638039,137.293182 117.661072,58.319496 191.973343,30.056610 
	C278.369781,-2.802189 372.474701,33.709145 413.861542,116.339188 
	C427.875641,144.318771 433.573822,174.092316 431.022400,205.553024 
	C410.678192,186.032639 390.872986,166.273056 370.999969,146.581940 
	C369.534302,145.129684 367.579987,144.170563 365.601624,142.787628 
	C363.144592,140.130081 361.044250,137.562042 358.714539,135.222427 
	C349.106659,125.573662 333.128601,122.891144 321.053497,129.009705 
	C316.812500,131.158691 312.811188,133.780823 308.355652,136.111389 
	C291.598816,127.978195 274.415588,123.287834 255.513214,124.048546 
	C248.299179,124.584381 241.294174,124.270058 234.835754,125.998299 
	C223.710922,128.975220 212.926346,133.223633 201.870850,136.629166 
	C191.033890,126.046341 178.452560,123.086258 164.603928,128.066406 
	C150.454605,133.154678 142.551102,144.157211 141.393372,158.778580 
	C140.314224,172.407623 146.151459,183.564163 158.133392,191.434021 
	C154.853653,209.167633 156.562073,225.810913 164.595627,241.649368 
	C171.439163,255.141663 181.780075,265.490601 193.886826,274.706909 
	C195.194138,276.794250 196.244217,278.691650 197.716415,280.168121 
	C225.272415,307.803589 252.886230,335.381439 280.451050,363.008148 
	C281.815460,364.375610 282.844604,366.077515 284.029877,367.623688 
z"/>
<path fill="#21272C" opacity="1.000000" stroke="none" 
	d="
M284.422607,367.660339 
	C282.844604,366.077515 281.815460,364.375610 280.451050,363.008148 
	C252.886230,335.381439 225.272415,307.803589 197.716415,280.168121 
	C196.244217,278.691650 195.194138,276.794250 194.249634,274.848999 
	C213.180603,286.844391 233.752930,292.444641 256.343781,292.701782 
	C278.826385,292.277191 299.520874,287.000519 317.891327,274.383179 
	C338.905396,259.950073 352.861694,240.784653 355.088165,214.760498 
	C355.786316,206.600128 354.382721,198.259933 354.302429,190.007904 
	C368.054474,183.580139 374.688995,162.717957 368.032745,147.998245 
	C367.281647,146.337280 366.578308,144.654709 365.852844,142.982178 
	C367.579987,144.170563 369.534302,145.129684 370.999969,146.581940 
	C390.872986,166.273056 410.678192,186.032639 430.813599,205.911148 
	C431.000000,224.929489 426.408264,242.933487 419.081757,260.098053 
	C395.068390,316.356567 353.057770,351.594330 293.610046,366.012207 
	C290.712708,366.714905 287.748413,367.141754 284.422607,367.660339 
z"/>
<path fill="#C9CACB" opacity="1.000000" stroke="none" 
	d="
M353.941101,190.002060 
	C354.382721,198.259933 355.786316,206.600128 355.088165,214.760498 
	C352.861694,240.784653 338.905396,259.950073 317.891327,274.383179 
	C299.520874,287.000519 278.826385,292.277191 256.339569,292.261230 
	C255.932083,281.286865 255.945236,270.882751 256.334229,260.362610 
	C263.537994,259.454926 265.597473,253.263626 269.137054,248.930130 
	C272.605743,244.683411 270.792542,240.139389 265.321838,238.819702 
	C262.307892,238.092651 259.096771,238.182922 255.969818,237.442062 
	C255.966125,199.358780 255.967163,161.738144 255.968185,124.117523 
	C274.415588,123.287834 291.598816,127.978195 308.556519,136.396469 
	C323.300354,144.275406 335.282928,154.393570 343.610016,168.182785 
	C347.748688,175.036209 350.540161,182.703140 353.941101,190.002060 
M292.936676,197.084442 
	C283.615601,198.569260 276.029083,202.749496 273.155487,212.209656 
	C270.440033,221.149185 274.158630,228.655762 280.954651,234.335693 
	C290.469421,242.287827 301.404205,244.977936 313.521881,241.220062 
	C328.544739,236.561279 333.489960,220.986542 323.589996,208.804077 
	C315.969543,199.426682 305.639038,196.191574 292.936676,197.084442 
z"/>
<path fill="#ECEDEE" opacity="1.000000" stroke="none" 
	d="
M255.958405,260.478607 
	C255.945236,270.882751 255.932083,281.286865 255.923141,292.131531 
	C233.752930,292.444641 213.180603,286.844391 194.188919,274.463104 
	C181.780075,265.490601 171.439163,255.141663 164.595627,241.649368 
	C156.562073,225.810913 154.853653,209.167633 158.381439,191.176880 
	C162.604645,181.958618 165.888977,172.989288 170.787537,165.011078 
	C178.325577,152.733932 189.936005,144.462982 201.998978,136.938446 
	C212.926346,133.223633 223.710922,128.975220 234.835754,125.998299 
	C241.294174,124.270058 248.299179,124.584381 255.513214,124.048546 
	C255.967163,161.738144 255.966125,199.358780 255.732452,237.570511 
	C255.348297,238.258636 255.196762,238.355652 254.612701,238.371185 
	C251.383286,238.528778 248.188477,238.018173 245.907318,239.228928 
	C243.843781,240.324173 241.737778,243.191284 241.502228,245.468613 
	C241.092285,249.431854 250.685959,258.976227 255.243271,260.068695 
	C255.637756,260.301239 255.798065,260.389923 255.958405,260.478607 
M229.604767,200.789398 
	C214.870834,192.582413 194.557037,197.769928 186.191360,211.875824 
	C180.378067,221.677963 183.413742,233.216309 193.315475,238.953964 
	C205.554520,246.045990 223.797760,242.904007 233.471359,232.038055 
	C242.773926,221.588867 241.522766,209.543655 229.604767,200.789398 
z"/>
<path fill="#858A8C" opacity="1.000000" stroke="none" 
	d="
M201.870850,136.629166 
	C189.936005,144.462982 178.325577,152.733932 170.787537,165.011078 
	C165.888977,172.989288 162.604645,181.958618 158.349045,190.741043 
	C146.151459,183.564163 140.314224,172.407623 141.393372,158.778580 
	C142.551102,144.157211 150.454605,133.154678 164.603928,128.066406 
	C178.452560,123.086258 191.033890,126.046341 201.870850,136.629166 
z"/>
<path fill="#525556" opacity="1.000000" stroke="none" 
	d="
M354.302429,190.007904 
	C350.540161,182.703140 347.748688,175.036209 343.610016,168.182785 
	C335.282928,154.393570 323.300354,144.275406 308.901245,136.471985 
	C312.811188,133.780823 316.812500,131.158691 321.053497,129.009705 
	C333.128601,122.891144 349.106659,125.573662 358.714539,135.222427 
	C361.044250,137.562042 363.144592,140.130081 365.601624,142.787628 
	C366.578308,144.654709 367.281647,146.337280 368.032745,147.998245 
	C374.688995,162.717957 368.054474,183.580139 354.302429,190.007904 
z"/>
<path fill="#535657" opacity="1.000000" stroke="none" 
	d="
M293.386475,197.049652 
	C305.639038,196.191574 315.969543,199.426682 323.589996,208.804077 
	C333.489960,220.986542 328.544739,236.561279 313.521881,241.220062 
	C301.404205,244.977936 290.469421,242.287827 280.954651,234.335693 
	C274.158630,228.655762 270.440033,221.149185 273.155487,212.209656 
	C276.029083,202.749496 283.615601,198.569260 293.386475,197.049652 
M300.925385,220.363434 
	C300.577484,216.552643 298.714661,213.836533 294.694550,214.365250 
	C291.463928,214.790115 289.205444,217.207123 290.117737,220.749771 
	C290.527466,222.340836 292.123138,224.281631 293.619934,224.803360 
	C296.890961,225.943512 299.294067,224.112961 300.925385,220.363434 
z"/>
<path fill="#3C3D3D" opacity="1.000000" stroke="none" 
	d="
M255.045212,238.452682 
	C255.196762,238.355652 255.348297,238.258636 255.737183,238.033173 
	C259.096771,238.182922 262.307892,238.092651 265.321838,238.819702 
	C270.792542,240.139389 272.605743,244.683411 269.137054,248.930130 
	C265.597473,253.263626 263.537994,259.454926 256.334198,260.362610 
	C255.798065,260.389923 255.637756,260.301239 255.240479,259.605225 
	C255.017410,252.149475 255.031311,245.301071 255.045212,238.452682 
z"/>
<path fill="#656A6C" opacity="1.000000" stroke="none" 
	d="
M229.932465,200.956329 
	C241.522766,209.543655 242.773926,221.588867 233.471359,232.038055 
	C223.797760,242.904007 205.554520,246.045990 193.315475,238.953964 
	C183.413742,233.216309 180.378067,221.677963 186.191360,211.875824 
	C194.557037,197.769928 214.870834,192.582413 229.932465,200.956329 
M217.446304,225.092438 
	C218.962051,223.824875 221.278641,222.831436 221.825958,221.232407 
	C222.947144,217.956802 221.219696,215.373734 217.829437,214.462875 
	C214.488480,213.565262 212.219727,215.432724 211.452789,218.408768 
	C210.403778,222.479294 212.777908,224.508896 217.446304,225.092438 
z"/>
<path fill="#474B4E" opacity="1.000000" stroke="none" 
	d="
M254.612701,238.371185 
	C255.031311,245.301071 255.017410,252.149475 255.006317,259.461365 
	C250.685959,258.976227 241.092285,249.431854 241.502228,245.468613 
	C241.737778,243.191284 243.843781,240.324173 245.907318,239.228928 
	C248.188477,238.018173 251.383286,238.528778 254.612701,238.371185 
z"/>
<path fill="#22282D" opacity="1.000000" stroke="none" 
	d="
M300.857544,220.740784 
	C299.294067,224.112961 296.890961,225.943512 293.619934,224.803360 
	C292.123138,224.281631 290.527466,222.340836 290.117737,220.749771 
	C289.205444,217.207123 291.463928,214.790115 294.694550,214.365250 
	C298.714661,213.836533 300.577484,216.552643 300.857544,220.740784 
z"/>
<path fill="#24292E" opacity="1.000000" stroke="none" 
	d="
M217.038818,225.097687 
	C212.777908,224.508896 210.403778,222.479294 211.452789,218.408768 
	C212.219727,215.432724 214.488480,213.565262 217.829437,214.462875 
	C221.219696,215.373734 222.947144,217.956802 221.825958,221.232407 
	C221.278641,222.831436 218.962051,223.824875 217.038818,225.097687 
z"/>
</svg>