<?xml version="1.0" standalone="no"?>
<!DOCTYPE svg PUBLIC "-//W3C//DTD SVG 20010904//EN"
 "http://www.w3.org/TR/2001/REC-SVG-20010904/DTD/svg10.dtd">
<svg version="1.0" xmlns="http://www.w3.org/2000/svg"
 width="512.000000pt" height="512.000000pt" viewBox="0 0 512.000000 512.000000"
 preserveAspectRatio="xMidYMid meet">

<g transform="translate(0.000000,512.000000) scale(0.100000,-0.100000)"
fill="#000000" stroke="none">
<path d="M850 4684 c-126 -19 -202 -46 -300 -109 -121 -78 -224 -205 -300
-369 -51 -110 -72 -202 -72 -311 0 -181 60 -318 209 -477 35 -37 63 -70 63
-73 0 -3 -16 -37 -35 -76 -230 -456 -318 -1016 -225 -1440 112 -517 513 -939
1120 -1179 475 -189 1157 -261 1745 -185 858 112 1480 478 1761 1038 55 108
95 228 125 367 32 149 32 463 1 660 -41 253 -121 509 -223 712 -22 43 -39 85
-39 94 0 9 33 51 73 93 83 88 135 168 168 261 19 55 23 86 23 200 1 115 -3
146 -22 210 -44 140 -128 274 -243 388 -130 130 -243 182 -409 190 -77 3 -123
0 -170 -12 -147 -37 -300 -138 -406 -268 -26 -33 -55 -58 -65 -58 -10 0 -68
20 -129 45 -295 121 -693 186 -1045 171 -323 -14 -566 -66 -885 -189 -43 -16
-72 -22 -85 -17 -11 5 -57 46 -102 93 -132 137 -250 207 -393 233 -75 13 -94
14 -140 8z m1946 -325 c705 -69 1262 -404 1629 -980 306 -479 427 -1091 310
-1556 -153 -604 -786 -1049 -1645 -1158 -299 -37 -530 -52 -675 -44 -416 26
-744 93 -1055 216 -259 102 -454 226 -626 397 -255 256 -377 531 -391 886 -31
741 372 1515 997 1915 110 71 322 170 457 214 162 54 360 93 573 114 82 8 325
6 426 -4z"/>
<path d="M1595 3300 c-295 -47 -552 -265 -656 -560 -114 -322 -16 -686 218
-812 152 -83 310 -74 531 28 253 116 430 319 516 592 110 350 -24 645 -334
736 -69 20 -197 28 -275 16z m320 -264 c55 -25 110 -81 131 -132 22 -53 18
-151 -10 -210 -75 -161 -298 -192 -416 -58 -94 108 -89 250 13 349 29 28 68
56 87 62 61 19 140 15 195 -11z"/>
<path d="M3345 3304 c-224 -35 -395 -186 -446 -394 -19 -77 -15 -220 10 -312
78 -299 254 -511 535 -644 266 -125 456 -111 620 46 160 153 205 381 136 678
-84 356 -384 610 -740 626 -47 3 -98 2 -115 0z m70 -268 c159 -74 200 -268 85
-400 -118 -134 -341 -103 -416 58 -28 59 -32 157 -10 210 54 129 214 192 341
132z"/>
<path d="M2396 2405 c-151 -29 -226 -96 -226 -201 0 -36 8 -63 30 -101 29 -51
67 -84 213 -186 85 -61 87 -77 15 -142 -95 -85 -223 -135 -348 -135 -37 0
-110 11 -172 27 -124 31 -151 27 -181 -25 -42 -72 5 -124 145 -162 228 -62
440 -23 636 117 l72 52 58 -42 c211 -159 421 -194 686 -116 86 26 116 54 116
109 0 26 -7 47 -20 60 -33 33 -66 35 -154 9 -113 -33 -284 -33 -368 0 -70 27
-197 116 -217 153 -19 34 -13 42 100 119 159 109 219 194 206 292 -6 44 -49
103 -93 129 -84 49 -345 72 -498 43z"/>
</g>
</svg>
